<?xml version="1.0" encoding="UTF-8" standalone="no"?>
<svg
   xmlns:dc="http://purl.org/dc/elements/1.1/"
   xmlns:cc="http://creativecommons.org/ns#"
   xmlns:rdf="http://www.w3.org/1999/02/22-rdf-syntax-ns#"
   xmlns:svg="http://www.w3.org/2000/svg"
   xmlns="http://www.w3.org/2000/svg"
   xmlns:sodipodi="http://sodipodi.sourceforge.net/DTD/sodipodi-0.dtd"
   xmlns:inkscape="http://www.inkscape.org/namespaces/inkscape"
   enable-background="new 0 0 800 800"
   height="735.85706"
   id="GUIDE"
   version="1.1"
   viewBox="0 0 454.90717 735.85706"
   width="454.90717"
   xml:space="preserve"
   sodipodi:docname="ship.svg"
   inkscape:version="1.0beta2 (368ca91, 2020-02-26)"><metadata
     id="metadata23"><rdf:RDF><cc:Work
         rdf:about=""><dc:format>image/svg+xml</dc:format><dc:type
           rdf:resource="http://purl.org/dc/dcmitype/StillImage" /><dc:title /></cc:Work></rdf:RDF></metadata><defs
     id="defs21" /><sodipodi:namedview
     inkscape:document-rotation="0"
     pagecolor="#ffffff"
     bordercolor="#666666"
     borderopacity="1"
     objecttolerance="10"
     gridtolerance="10"
     guidetolerance="10"
     inkscape:pageopacity="0"
     inkscape:pageshadow="2"
     inkscape:window-width="640"
     inkscape:window-height="480"
     id="namedview19"
     showgrid="false"
     fit-margin-top="0"
     fit-margin-left="0"
     fit-margin-right="0"
     fit-margin-bottom="0"
     inkscape:zoom="0.79875"
     inkscape:cx="208.89001"
     inkscape:cy="347.48948"
     inkscape:current-layer="GUIDE" /><path
     d="m 229.21292,241.19139 c -17.99146,-0.0782 -34.9359,6.85772 -47.70807,19.52137 -12.77288,12.66434 -19.85313,29.54899 -19.92918,47.54116 -0.0768,17.98863 6.85774,34.93166 19.52209,47.70454 12.66646,12.77501 29.54969,19.85383 47.53903,19.93129 17.99076,0.0761 34.92954,-6.85846 47.70312,-19.51926 0.005,-0.005 0.005,-0.005 0.005,-0.005 12.77217,-12.66365 19.85241,-29.54829 19.92916,-47.53834 0.0754,-17.99147 -6.85844,-34.93379 -19.52419,-47.70809 -12.66577,-12.77147 -29.5483,-19.84958 -47.53693,-19.92774 z m 29.17398,67.47488 c -0.0322,7.87287 -3.12266,15.2575 -8.71412,20.80145 v 0 c -5.59145,5.54113 -13.00433,8.57342 -20.87505,8.5363 -7.86862,-0.0307 -15.25536,-3.12477 -20.79932,-8.71623 -5.53972,-5.5872 -8.57414,-13.0008 -8.53843,-20.87294 0.0322,-7.86862 3.13186,-15.25816 8.71835,-20.79718 5.5872,-5.53973 12.99868,-8.57486 20.87082,-8.54056 16.24918,0.0665 29.40991,13.34001 29.33775,29.58916 z"
     fill="#041c3f"
     id="path2"
     inkscape:connector-curvature="0"
     style="fill:#ffffff;fill-opacity:0.98393571" /><path
     d="M 230.24412,1.7466478e-4 C 224.16164,-0.02436534 218.43228,2.8708617 214.85668,7.7778217 213.54436,9.5817247 182.33238,52.671557 150.77386,122.45697 132.25667,163.39619 117.46055,205.1086 106.79063,246.44192 93.686949,297.19422 86.818259,347.52835 86.333119,396.1 L 4.3560093,516.59942 c -2.11693,3.11004 -3.25478,6.78147 -3.28073,10.5432 L 3.493395e-4,710.13611 C -0.05005066,718.47488 5.3575193,725.86041 13.316119,728.33815 c 6.77929,2.10784 14.0543,0.23038 18.95908,-4.63272 0.85356,-0.84631 1.63467,-1.78132 2.33199,-2.80083 L 118.37537,597.76611 c 6.38916,19.95936 13.71424,39.99202 21.99016,60.07611 2.9171,7.06661 9.7896,11.69005 17.43546,11.72621 l 50.64394,0.21608 -0.20074,47.05045 c -0.0446,10.46226 8.39872,18.97799 18.86028,19.02192 5.23113,0.0223 9.97491,-2.07595 13.4204,-5.49217 3.44194,-3.41269 5.58061,-8.13839 5.60504,-13.36739 l 0.20005,-47.05117 50.64535,0.2175 c 5.12225,0.0176 9.92023,-2.02315 13.42182,-5.49499 1.72062,-1.70599 3.13018,-3.76121 4.10811,-6.08132 8.44983,-20.01273 15.94629,-39.98285 22.5034,-59.88062 l 82.72074,123.8439 c 4.6303,6.9325 13.24602,10.02186 21.22404,7.61636 3.04026,-0.919 5.71374,-2.5488 7.86326,-4.68006 3.49165,-3.46198 5.5931,-8.24654 5.60379,-13.40417 l 0.48661,-182.99317 c 0.0111,-3.76109 -1.10103,-7.44353 -3.1878,-10.57363 L 370.76984,397.32491 c -0.0749,-48.57546 -6.50674,-98.96633 -19.17756,-149.83214 -10.32319,-41.42218 -24.76,-83.26074 -42.92293,-124.35646 C 277.69898,53.084111 246.86361,9.7302507 245.56531,7.9166227 242.02186,2.9693897 236.31881,0.02821466 230.24412,1.7466478e-4 Z M 38.247939,648.19072 38.926219,533.1371 89.167049,459.2863 c 2.96633,29.9985 8.21304,60.34402 15.734931,90.92765 z M 416.99932,534.75516 416.69722,649.80897 350.88025,551.2684 c 7.78756,-30.52325 13.29088,-60.81796 16.50955,-90.79078 z M 274.40348,139.34776 c 26.93192,61.12888 58.93822,156.037 58.49175,261.01029 -0.20829,48.32253 -7.07873,97.90498 -20.46832,148.21411 -0.28859,0.85084 -0.52425,1.72242 -0.68711,2.60491 -7.26058,26.83366 -16.37894,53.87861 -27.33913,81.04439 l -37.91118,-0.16388 0.32931,-76.51956 c 0.0432,-10.45943 -8.40226,-18.97729 -18.86239,-19.02404 -10.46155,-0.0439 -18.97799,8.40156 -19.02404,18.8624 l -0.3286,76.51885 -37.91118,-0.16388 c -10.72726,-27.26326 -19.61804,-54.38575 -26.65076,-81.28747 -0.15464,-0.87748 -0.3808,-1.73476 -0.65721,-2.58024 -12.96543,-50.42723 -19.41462,-100.07147 -19.2084,-148.40461 0.44787,-104.96904 33.26357,-199.59988 60.71544,-260.49743 16.67606,-37.00562 33.46182,-66.412844 45.11921,-85.288284 11.4966,18.977766 28.03081,48.528564 44.39261,85.674444 z"
     fill="#041c3f"
     id="path16"
     inkscape:connector-curvature="0"
     style="fill:#ffffff;fill-opacity:0.98393571" /><path
     inkscape:connector-curvature="0"
     id="path831"
     d="m 182.57401,630.94318 -11.91851,-0.40581 -2.22088,-5.90494 c -1.22148,-3.24771 -5.83447,-16.67823 -10.25109,-29.84559 -30.95787,-92.2956 -40.17464,-179.97977 -28.07986,-267.13914 10.17473,-73.32272 34.72861,-149.55997 71.36996,-221.59625 10.43792,-20.520779 26.7372,-49.215442 28.24018,-49.716433 2.46358,-0.821195 28.98997,49.301853 43.59539,82.375863 55.05531,124.67284 71.27156,245.69627 48.7881,364.11011 -6.88223,36.24664 -20.21431,82.8465 -33.21615,116.10092 l -5.06364,12.95114 -18.37142,8e-4 -18.37142,8e-4 0.35045,-39.75041 c 0.34599,-39.24422 0.3141,-39.82178 -2.50391,-45.35557 -6.94597,-13.63992 -24.23935,-14.47336 -33.01365,-1.59108 -2.27332,3.33766 -2.72405,6.44051 -3.43871,23.67206 -0.45235,10.907 -0.82433,29.54922 -0.82663,41.42715 l -0.004,21.59625 -6.57277,-0.26202 c -3.61502,-0.14412 -11.93609,-0.44465 -18.49127,-0.66785 z m 63.14174,-256.94575 c 13.15807,-3.36527 21.13297,-7.91402 30.77705,-17.55474 13.4149,-13.41022 19.97569,-29.22587 20.01564,-48.25027 0.0523,-24.93053 -13.05083,-46.67227 -35.96133,-59.66964 -13.40599,-7.60537 -35.97089,-9.70344 -51.79503,-4.81585 -19.53214,6.03286 -36.91297,22.73866 -43.80249,42.1013 -3.73293,10.4912 -4.55827,28.679 -1.785,39.33555 9.57969,36.81087 45.80828,58.2509 82.55116,48.85365 z"
     style="fill:#000000;fill-opacity:1;stroke:#ffffff;stroke-width:0.433;stroke-linecap:round;stroke-linejoin:round" /><path
     inkscape:connector-curvature="0"
     id="path833"
     d="m 219.84208,335.95184 c -14.7987,-5.51655 -22.66016,-20.81594 -18.46181,-35.929 1.68622,-6.06995 9.40424,-14.78411 15.57759,-17.58813 6.59719,-2.99654 17.32971,-2.99654 23.9269,0 6.42632,2.91892 13.95659,11.64261 15.7278,18.22037 4.63938,17.22935 -7.68261,34.97541 -25.32612,36.47454 -4.09642,0.34806 -8.59235,-0.11463 -11.44436,-1.17778 z"
     style="fill:#000000;fill-opacity:1;stroke:#ffffff;stroke-width:0.433;stroke-linecap:round;stroke-linejoin:round" /><path
     inkscape:connector-curvature="0"
     id="path835"
     d="m 383.77688,599.36842 -32.31189,-48.50157 2.50442,-9.88814 c 3.05323,-12.05496 9.54916,-46.28379 11.38039,-59.96638 2.81343,-21.02129 -0.37458,-23.14091 27.05415,17.98754 l 24.33629,36.49143 -0.32574,56.18935 -0.32574,56.18936 z"
     style="fill:#000000;fill-opacity:1;stroke:#ffffff;stroke-width:0.433;stroke-linecap:round;stroke-linejoin:round" /><path
     inkscape:connector-curvature="0"
     id="path837"
     d="m 39.130367,589.4678 0.846246,-56.80274 24.049813,-35.38887 24.049812,-35.38888 0.909351,4.55468 c 0.500143,2.50508 2.373309,14.41384 4.162589,26.46392 1.789282,12.05008 4.975031,29.88834 7.079442,39.64058 l 3.82621,17.73135 -30.434577,44.86646 c -16.739015,24.67655 -31.537199,46.27491 -32.884853,47.99635 -2.439066,3.11557 -2.446407,2.86994 -1.604033,-53.67285 z"
     style="fill:#000000;fill-opacity:1;stroke:#ffffff;stroke-width:0.433;stroke-linecap:round;stroke-linejoin:round" /></svg>
