<svg xmlns="http://www.w3.org/2000/svg" viewBox="0 0 82 18">
    <path fill="#ffffff" d="M2.1 17H0V.7h9.5v2H2.1V8h6.7v2H2.1v7M13.4 3c-.3.3-.6.4-1 .4s-.8-.1-1-.4c-.3-.3-.4-.6-.4-1s.1-.8.4-1c.3-.3.6-.4 1-.4s.8.1 1 .4c.3.3.4.6.4 1s-.1.7-.4 1zm-2.1 2.8h2.1V17h-2.1V5.8zM18 17h-2.1V5.8h2v1.8h.1c.2-.6.6-1.1 1.3-1.5.7-.4 1.3-.6 1.9-.6.6 0 1.1.1 1.6.3l-.8 2c-.3-.1-.6-.2-1.1-.2-.8 0-1.4.3-2 .9-.6.6-.9 1.4-.9 2.4V17m10.5.4c-1.7 0-3-.6-4.1-1.7-1-1.1-1.6-2.6-1.6-4.3 0-1.6.5-3 1.5-4.2 1-1.2 2.3-1.8 3.9-1.8s3 .5 4 1.6 1.5 2.5 1.5 4.3v.4h-8.8c.1 1.1.4 2 1.1 2.7s1.5 1 2.4 1c1.5 0 2.5-.6 3-1.9l1.9.8c-.4.9-1 1.6-1.8 2.2-.8.6-1.8.9-3 .9zm3-7.3c0-.6-.3-1.2-.9-1.8-.5-.6-1.3-.9-2.4-.9-.8 0-1.4.2-2 .7-.6.5-1 1.1-1.2 2h6.5zm9.7 7.3c-.8 0-1.6-.2-2.3-.5-.7-.4-1.2-.8-1.5-1.4h-.1V17h-2V.7h2.1v5.2l-.1 1.6h.1c.3-.6.8-1 1.5-1.4.7-.4 1.4-.6 2.3-.6 1.4 0 2.7.6 3.7 1.7s1.6 2.6 1.6 4.2-.5 3.1-1.6 4.2c-1 1.2-2.2 1.8-3.7 1.8zm-.3-1.9c1 0 1.8-.4 2.5-1.1.7-.7 1-1.7 1-2.9s-.3-2.2-1-2.9c-.7-.7-1.5-1.1-2.5-1.1s-1.8.4-2.5 1.1c-.7.7-1 1.7-1 2.9s.3 2.2 1 2.9c.7.7 1.5 1.1 2.5 1.1zm10.9 1.9c-1.2 0-2.2-.3-3-1-.8-.7-1.2-1.6-1.2-2.7 0-1.2.5-2.2 1.4-2.9.9-.7 2.1-1 3.5-1 1.2 0 2.2.2 3 .7v-.3c0-.8-.3-1.5-.8-2-.6-.5-1.2-.7-2.1-.7-.6 0-1.2.1-1.6.4-.5.3-.8.7-1 1.2l-1.9-.8c.3-.7.8-1.3 1.5-1.9.8-.6 1.8-.9 3-.9 1.4 0 2.6.4 3.5 1.3.9.8 1.4 2 1.4 3.5V17h-2v-1.6h-.1c-.8 1.3-2 2-3.6 2zm.4-1.9c.9 0 1.6-.3 2.3-1 .7-.6 1.1-1.4 1.1-2.3-.6-.5-1.5-.7-2.7-.7-1 0-1.8.2-2.3.7-.5.4-.8 1-.8 1.6 0 .5.2 1 .7 1.3.5.2 1 .3 1.7.4zm11.6 1.9c-1.2 0-2.3-.3-3.1-.9-.8-.6-1.4-1.4-1.8-2.3l1.9-.8c.6 1.4 1.6 2.1 3 2.1.6 0 1.2-.1 1.6-.4.4-.3.6-.7.6-1.1 0-.7-.5-1.2-1.5-1.5l-2.2-.5c-.7-.2-1.4-.5-2-1-.6-.5-1-1.2-1-2.1 0-1 .4-1.8 1.3-2.4.9-.6 1.9-.9 3.1-.9 1 0 1.9.2 2.6.7.8.4 1.3 1.1 1.7 1.9l-1.8.8c-.4-1-1.3-1.5-2.5-1.5-.6 0-1.1.1-1.6.4-.4.3-.6.6-.6 1 0 .6.5 1.1 1.5 1.3l2.2.5c1 .2 1.8.7 2.3 1.3.5.6.8 1.3.8 2 0 1-.4 1.8-1.2 2.5-1 .5-2 .9-3.3.9m11.2 0c-1.7 0-3-.6-4.1-1.7-1.1-1.1-1.6-2.6-1.6-4.3 0-1.6.5-3 1.5-4.2 1-1.2 2.3-1.8 3.9-1.8s3 .5 4 1.6 1.5 2.5 1.5 4.3v.4h-8.8c.1 1.1.4 2 1.1 2.7.7.7 1.5 1 2.4 1 1.5 0 2.5-.6 3-1.9l1.9.8c-.4.9-1 1.6-1.8 2.2-.7.6-1.8.9-3 .9zm3-7.3c0-.6-.3-1.2-.9-1.8-.5-.6-1.3-.9-2.4-.9-.8 0-1.4.2-2 .7-.6.5-1 1.1-1.2 2H78z"/>
</svg>
